<svg width="220" height="35" viewBox="0 0 220 35" fill="none" xmlns="http://www.w3.org/2000/svg">
<path d="M24.3764 9.98438H18.777C18.6747 9.25994 18.4659 8.61648 18.1506 8.05398C17.8352 7.48295 17.4304 6.99716 16.9361 6.59659C16.4418 6.19602 15.8707 5.8892 15.223 5.67614C14.5838 5.46307 13.8892 5.35653 13.1392 5.35653C11.7841 5.35653 10.6037 5.69318 9.59801 6.36648C8.59233 7.03125 7.8125 8.00284 7.25852 9.28125C6.70455 10.5511 6.42756 12.0937 6.42756 13.9091C6.42756 15.7756 6.70455 17.3437 7.25852 18.6136C7.82102 19.8835 8.60511 20.8423 9.6108 21.4901C10.6165 22.1378 11.7798 22.4616 13.1009 22.4616C13.8423 22.4616 14.5284 22.3636 15.1591 22.1676C15.7983 21.9716 16.3651 21.6861 16.8594 21.3111C17.3537 20.9276 17.7628 20.4631 18.0866 19.9176C18.419 19.3722 18.6491 18.75 18.777 18.0511L24.3764 18.0767C24.2315 19.2784 23.8693 20.4375 23.2898 21.554C22.7188 22.6619 21.9474 23.6548 20.9759 24.5327C20.0128 25.402 18.8622 26.0923 17.5241 26.6037C16.1946 27.1065 14.6903 27.358 13.0114 27.358C10.6761 27.358 8.58807 26.8295 6.74716 25.7727C4.91477 24.7159 3.46591 23.1861 2.40057 21.1832C1.34375 19.1804 0.815341 16.7557 0.815341 13.9091C0.815341 11.054 1.35227 8.625 2.42614 6.62216C3.5 4.61932 4.95739 3.09375 6.7983 2.04545C8.6392 0.988636 10.7102 0.460226 13.0114 0.460226C14.5284 0.460226 15.9347 0.673295 17.2301 1.09943C18.5341 1.52557 19.6889 2.14773 20.6946 2.96591C21.7003 3.77557 22.5185 4.76846 23.1491 5.9446C23.7884 7.12074 24.1974 8.46733 24.3764 9.98438ZM31.8519 34.3636C31.1616 34.3636 30.5138 34.3082 29.9087 34.1974C29.3121 34.0952 28.8178 33.9631 28.4258 33.8011L29.6531 29.7358C30.2923 29.9318 30.8675 30.0384 31.3789 30.0554C31.8988 30.0724 32.3462 29.9531 32.7212 29.6974C33.1048 29.4418 33.4158 29.0071 33.6545 28.3935L33.9741 27.5625L26.93 7.36364H32.6573L36.7227 21.7841H36.9272L41.0309 7.36364H46.7965L39.1644 29.1222C38.7979 30.179 38.2994 31.0994 37.6687 31.8835C37.0465 32.6761 36.2582 33.2855 35.3036 33.7116C34.3491 34.1463 33.1985 34.3636 31.8519 34.3636ZM49.5835 27V7.36364H54.8633V10.7898H55.0678C55.4258 9.57102 56.0266 8.65057 56.8704 8.02841C57.7141 7.39773 58.6857 7.08239 59.7852 7.08239C60.0579 7.08239 60.3519 7.09943 60.6673 7.13352C60.9826 7.16761 61.2596 7.21449 61.4982 7.27415V12.1065C61.2425 12.0298 60.8889 11.9616 60.4371 11.902C59.9854 11.8423 59.5721 11.8125 59.1971 11.8125C58.396 11.8125 57.68 11.9872 57.0494 12.3366C56.4272 12.6776 55.9329 13.1548 55.5664 13.7685C55.2085 14.3821 55.0295 15.0895 55.0295 15.8906V27H49.5835ZM76.9062 18.6392V7.36364H82.3523V27H77.1236V23.4332H76.919C76.4759 24.5838 75.7386 25.5085 74.7074 26.2074C73.6847 26.9062 72.4361 27.2557 70.9616 27.2557C69.6491 27.2557 68.4943 26.9574 67.4972 26.3608C66.5 25.7642 65.7202 24.9162 65.1577 23.8168C64.6037 22.7173 64.3224 21.4006 64.3139 19.8665V7.36364H69.7599V18.8949C69.7685 20.054 70.0795 20.9702 70.6932 21.6435C71.3068 22.3168 72.1293 22.6534 73.1605 22.6534C73.8168 22.6534 74.4304 22.5043 75.0014 22.206C75.5724 21.8991 76.0327 21.4474 76.3821 20.8509C76.7401 20.2543 76.9148 19.517 76.9062 18.6392ZM103.047 12.9631L98.0607 13.2699C97.9755 12.8437 97.7923 12.4602 97.511 12.1193C97.2298 11.7699 96.859 11.4929 96.3988 11.2884C95.9471 11.0753 95.4059 10.9688 94.7752 10.9688C93.9315 10.9688 93.2198 11.1477 92.6403 11.5057C92.0607 11.8551 91.771 12.3239 91.771 12.9119C91.771 13.3807 91.9585 13.777 92.3335 14.1009C92.7085 14.4247 93.3519 14.6847 94.2639 14.8807L97.8178 15.5966C99.7269 15.9886 101.15 16.6193 102.088 17.4886C103.025 18.358 103.494 19.5 103.494 20.9148C103.494 22.2017 103.115 23.331 102.356 24.3026C101.606 25.2741 100.575 26.0327 99.2624 26.5781C97.9585 27.1151 96.4542 27.3835 94.7496 27.3835C92.1502 27.3835 90.0792 26.8423 88.5366 25.7599C87.0025 24.669 86.1033 23.1861 85.8391 21.3111L91.1957 21.0298C91.3576 21.8224 91.7496 22.4276 92.3718 22.8452C92.994 23.2543 93.7908 23.4588 94.7624 23.4588C95.717 23.4588 96.484 23.2756 97.0636 22.9091C97.6516 22.5341 97.9499 22.0526 97.9585 21.4645C97.9499 20.9702 97.7411 20.5653 97.332 20.25C96.9229 19.9261 96.2923 19.679 95.44 19.5085L92.0394 18.831C90.1218 18.4474 88.6942 17.7827 87.7567 16.8366C86.8278 15.8906 86.3633 14.6847 86.3633 13.2188C86.3633 11.9574 86.7042 10.8707 87.386 9.95881C88.0763 9.04688 89.0437 8.34375 90.288 7.84943C91.5408 7.35511 93.0067 7.10795 94.6857 7.10795C97.1658 7.10795 99.1175 7.6321 100.541 8.6804C101.973 9.72869 102.808 11.1562 103.047 12.9631Z" fill="#7D98A1"/>
<path d="M115.358 27V0.818181H125.841C127.767 0.818181 129.373 1.10369 130.66 1.67472C131.947 2.24574 132.914 3.03835 133.562 4.05256C134.21 5.05824 134.534 6.21733 134.534 7.52983C134.534 8.55256 134.329 9.4517 133.92 10.2273C133.511 10.9943 132.949 11.625 132.233 12.1193C131.525 12.6051 130.716 12.9503 129.804 13.1548V13.4105C130.801 13.4531 131.734 13.7344 132.603 14.2543C133.481 14.7741 134.193 15.5028 134.738 16.4403C135.284 17.3693 135.556 18.4773 135.556 19.7642C135.556 21.1534 135.211 22.3935 134.521 23.4844C133.839 24.5668 132.829 25.4233 131.491 26.054C130.153 26.6847 128.504 27 126.544 27H115.358ZM120.893 22.4744H125.406C126.949 22.4744 128.074 22.1804 128.781 21.5923C129.488 20.9957 129.842 20.2031 129.842 19.2145C129.842 18.4901 129.667 17.8509 129.318 17.2969C128.968 16.7429 128.47 16.3082 127.822 15.9929C127.183 15.6776 126.42 15.5199 125.534 15.5199H120.893V22.4744ZM120.893 11.7741H124.997C125.755 11.7741 126.429 11.642 127.017 11.3778C127.613 11.1051 128.082 10.7216 128.423 10.2273C128.772 9.73295 128.947 9.14062 128.947 8.45028C128.947 7.50426 128.61 6.74148 127.937 6.16193C127.272 5.58239 126.326 5.29261 125.099 5.29261H120.893V11.7741ZM144.656 27.3707C143.403 27.3707 142.286 27.1534 141.306 26.7188C140.326 26.2756 139.55 25.6236 138.979 24.7628C138.417 23.8935 138.136 22.8111 138.136 21.5156C138.136 20.4247 138.336 19.5085 138.737 18.767C139.137 18.0256 139.683 17.429 140.373 16.9773C141.063 16.5256 141.847 16.1847 142.725 15.9545C143.612 15.7244 144.54 15.5625 145.512 15.4688C146.654 15.3494 147.575 15.2386 148.273 15.1364C148.972 15.0256 149.479 14.8636 149.795 14.6506C150.11 14.4375 150.268 14.1222 150.268 13.7045V13.6278C150.268 12.8182 150.012 12.1918 149.501 11.7486C148.998 11.3054 148.282 11.0838 147.353 11.0838C146.373 11.0838 145.593 11.3011 145.013 11.7358C144.434 12.1619 144.05 12.6989 143.863 13.3466L138.826 12.9375C139.082 11.7443 139.585 10.7131 140.335 9.84375C141.085 8.96591 142.052 8.29261 143.237 7.82386C144.43 7.34659 145.81 7.10795 147.379 7.10795C148.469 7.10795 149.513 7.2358 150.511 7.49148C151.516 7.74716 152.407 8.14347 153.183 8.6804C153.967 9.21733 154.585 9.90767 155.036 10.7514C155.488 11.5866 155.714 12.5881 155.714 13.7557V27H150.549V24.277H150.396C150.08 24.8906 149.658 25.4318 149.13 25.9006C148.602 26.3608 147.967 26.723 147.225 26.9872C146.484 27.2429 145.627 27.3707 144.656 27.3707ZM146.215 23.6122C147.016 23.6122 147.724 23.4545 148.337 23.1392C148.951 22.8153 149.433 22.3807 149.782 21.8352C150.131 21.2898 150.306 20.6719 150.306 19.9815V17.8977C150.136 18.0085 149.901 18.1108 149.603 18.2045C149.313 18.2898 148.985 18.3707 148.619 18.4474C148.252 18.5156 147.886 18.5795 147.519 18.6392C147.153 18.6903 146.82 18.7372 146.522 18.7798C145.883 18.8736 145.325 19.0227 144.847 19.2273C144.37 19.4318 143.999 19.7088 143.735 20.0582C143.471 20.3991 143.339 20.8253 143.339 21.3366C143.339 22.0781 143.607 22.6449 144.144 23.0369C144.69 23.4205 145.38 23.6122 146.215 23.6122ZM165.385 0.818181V27H159.939V0.818181H165.385ZM175.194 0.818181V27H169.748V0.818181H175.194ZM188.428 27.3835C186.442 27.3835 184.725 26.9616 183.276 26.1179C181.836 25.2656 180.724 24.081 179.94 22.5639C179.156 21.0384 178.763 19.2699 178.763 17.2585C178.763 15.2301 179.156 13.4574 179.94 11.9403C180.724 10.4148 181.836 9.23011 183.276 8.38636C184.725 7.53409 186.442 7.10795 188.428 7.10795C190.414 7.10795 192.127 7.53409 193.567 8.38636C195.016 9.23011 196.133 10.4148 196.917 11.9403C197.701 13.4574 198.093 15.2301 198.093 17.2585C198.093 19.2699 197.701 21.0384 196.917 22.5639C196.133 24.081 195.016 25.2656 193.567 26.1179C192.127 26.9616 190.414 27.3835 188.428 27.3835ZM188.454 23.1648C189.357 23.1648 190.112 22.9091 190.717 22.3977C191.322 21.8778 191.778 21.1705 192.085 20.2756C192.4 19.3807 192.558 18.3622 192.558 17.2202C192.558 16.0781 192.4 15.0597 192.085 14.1648C191.778 13.2699 191.322 12.5625 190.717 12.0426C190.112 11.5227 189.357 11.2628 188.454 11.2628C187.542 11.2628 186.775 11.5227 186.153 12.0426C185.539 12.5625 185.075 13.2699 184.759 14.1648C184.452 15.0597 184.299 16.0781 184.299 17.2202C184.299 18.3622 184.452 19.3807 184.759 20.2756C185.075 21.1705 185.539 21.8778 186.153 22.3977C186.775 22.9091 187.542 23.1648 188.454 23.1648ZM207.08 15.6477V27H201.634V7.36364H206.825V10.8281H207.055C207.489 9.68608 208.218 8.78267 209.241 8.1179C210.263 7.4446 211.504 7.10795 212.961 7.10795C214.325 7.10795 215.513 7.40625 216.528 8.00284C217.542 8.59943 218.33 9.4517 218.893 10.5597C219.455 11.6591 219.737 12.9716 219.737 14.4972V27H214.29V15.4688C214.299 14.267 213.992 13.3295 213.37 12.6562C212.748 11.9744 211.891 11.6335 210.8 11.6335C210.067 11.6335 209.42 11.7912 208.857 12.1065C208.303 12.4219 207.869 12.8821 207.553 13.4872C207.246 14.0838 207.089 14.804 207.08 15.6477Z" fill="#1C2321"/>
</svg>
